<?xml version="1.0" encoding="iso-8859-1"?>
<!-- Generator: Adobe Illustrator 19.0.0, SVG Export Plug-In . SVG Version: 6.00 Build 0)  -->
<svg version="1.1" id="Capa_1" xmlns="http://www.w3.org/2000/svg" xmlns:xlink="http://www.w3.org/1999/xlink" x="0px" y="0px"
	 viewBox="0 0 512 512" style="enable-background:new 0 0 512 512;" xml:space="preserve">
<g>
	<path style="fill:#DD8833;" d="M293.192,38.945c-4.329,0-7.837-3.509-7.837-7.837V10.341c0-4.328,3.508-7.837,7.837-7.837
		s7.837,3.509,7.837,7.837v20.767C301.029,35.436,297.52,38.945,293.192,38.945z"/>
	<path style="fill:#DD8833;" d="M293.192,94.855c-4.329,0-7.837-3.509-7.837-7.837V66.252c0-4.328,3.508-7.837,7.837-7.837
		s7.837,3.509,7.837,7.837v20.766C301.029,91.347,297.52,94.855,293.192,94.855z"/>
	<path style="fill:#DD8833;" d="M331.53,56.517h-20.767c-4.329,0-7.837-3.509-7.837-7.837s3.508-7.837,7.837-7.837h20.767
		c4.329,0,7.837,3.509,7.837,7.837S335.859,56.517,331.53,56.517z"/>
	<path style="fill:#DD8833;" d="M275.619,56.517h-20.766c-4.329,0-7.837-3.509-7.837-7.837s3.508-7.837,7.837-7.837h20.766
		c4.329,0,7.837,3.509,7.837,7.837S279.948,56.517,275.619,56.517z"/>
</g>
<path style="fill:#CF8BFC;" d="M512,196.057v291.218c0,12.756-10.341,23.097-23.097,23.097H256H23.097
	C10.341,510.373,0,500.031,0,487.275V196.057c0-13.384,10.849-24.233,24.233-24.233h463.533
	C501.151,171.824,512,182.673,512,196.057z"/>
<path style="fill:#CEC1E8;" d="M484.427,181.453v277.388c0,12.878-10.44,23.319-23.319,23.319H256H50.891
	c-12.878,0-23.319-10.44-23.319-23.319V181.453"/>
<g>
	<path style="fill:#EDE6F5;" d="M256.003,176.35v305.81h-3.459c-7.262-18.307-25.119-31.242-45.996-31.242H50.89
		c-12.873,0-23.322-10.439-23.322-23.312V150.217c0-12.884,10.449-23.322,23.322-23.322h155.658
		C233.862,126.895,256.003,149.037,256.003,176.35z"/>
	<path style="fill:#EDE6F5;" d="M484.428,150.217v277.389c0,12.873-10.439,23.312-23.322,23.312H305.458
		c-2.968,0-5.883,0.261-8.704,0.773c-17.042,3.02-31.065,14.764-37.292,30.469h-3.459V176.35c0-24.346,17.586-44.575,40.751-48.692
		c2.832-0.502,5.736-0.763,8.704-0.763h155.648C473.99,126.895,484.428,137.334,484.428,150.217z"/>
</g>
<path style="fill:#CEC1E8;" d="M296.754,127.658v324.033c-17.042,3.02-31.065,14.764-37.292,30.469h-3.459V176.35
	C256.003,152.004,273.589,131.775,296.754,127.658z"/>
<g>
	<path style="fill:#5D4E75;" d="M202.667,206.604H75.874c-4.329,0-7.837-3.509-7.837-7.837c0-4.328,3.508-7.837,7.837-7.837h126.793
		c4.329,0,7.837,3.509,7.837,7.837C210.504,203.095,206.995,206.604,202.667,206.604z"/>
	<path style="fill:#5D4E75;" d="M442.164,206.604H315.371c-4.329,0-7.837-3.509-7.837-7.837c0-4.328,3.508-7.837,7.837-7.837
		h126.793c4.329,0,7.837,3.509,7.837,7.837C450.001,203.095,446.492,206.604,442.164,206.604z"/>
	<path style="fill:#5D4E75;" d="M202.667,244.96H75.874c-4.329,0-7.837-3.509-7.837-7.837c0-4.328,3.508-7.837,7.837-7.837h126.793
		c4.329,0,7.837,3.509,7.837,7.837C210.504,241.451,206.995,244.96,202.667,244.96z"/>
	<path style="fill:#5D4E75;" d="M202.667,321.672h-28.162c-4.329,0-7.837-3.509-7.837-7.837s3.508-7.837,7.837-7.837h28.162
		c4.329,0,7.837,3.509,7.837,7.837S206.995,321.672,202.667,321.672z"/>
	<path style="fill:#5D4E75;" d="M148.381,321.672H75.874c-4.329,0-7.837-3.509-7.837-7.837s3.508-7.837,7.837-7.837h72.507
		c4.329,0,7.837,3.509,7.837,7.837S152.709,321.672,148.381,321.672z"/>
	<path style="fill:#5D4E75;" d="M202.667,398.385H75.874c-4.329,0-7.837-3.509-7.837-7.837s3.508-7.837,7.837-7.837h126.793
		c4.329,0,7.837,3.509,7.837,7.837S206.995,398.385,202.667,398.385z"/>
	<path style="fill:#5D4E75;" d="M202.667,283.316H75.874c-4.329,0-7.837-3.509-7.837-7.837s3.508-7.837,7.837-7.837h126.793
		c4.329,0,7.837,3.509,7.837,7.837S206.995,283.316,202.667,283.316z"/>
	<path style="fill:#5D4E75;" d="M202.667,360.029H75.874c-4.329,0-7.837-3.509-7.837-7.837c0-4.328,3.508-7.837,7.837-7.837h126.793
		c4.329,0,7.837,3.509,7.837,7.837C210.504,356.52,206.995,360.029,202.667,360.029z"/>
	<path style="fill:#5D4E75;" d="M442.164,244.96H315.371c-4.329,0-7.837-3.509-7.837-7.837c0-4.328,3.508-7.837,7.837-7.837h126.793
		c4.329,0,7.837,3.509,7.837,7.837C450.001,241.451,446.492,244.96,442.164,244.96z"/>
	<path style="fill:#5D4E75;" d="M442.164,321.672H315.371c-4.329,0-7.837-3.509-7.837-7.837s3.508-7.837,7.837-7.837h126.793
		c4.329,0,7.837,3.509,7.837,7.837S446.492,321.672,442.164,321.672z"/>
	<path style="fill:#5D4E75;" d="M442.164,398.385H315.371c-4.329,0-7.837-3.509-7.837-7.837s3.508-7.837,7.837-7.837h126.793
		c4.329,0,7.837,3.509,7.837,7.837S446.492,398.385,442.164,398.385z"/>
	<path style="fill:#5D4E75;" d="M442.164,283.316H315.371c-4.329,0-7.837-3.509-7.837-7.837s3.508-7.837,7.837-7.837h126.793
		c4.329,0,7.837,3.509,7.837,7.837S446.492,283.316,442.164,283.316z"/>
	<path style="fill:#5D4E75;" d="M333.795,360.029h-18.424c-4.329,0-7.837-3.509-7.837-7.837c0-4.328,3.508-7.837,7.837-7.837h18.424
		c4.329,0,7.837,3.509,7.837,7.837C341.631,356.52,338.124,360.029,333.795,360.029z"/>
	<path style="fill:#5D4E75;" d="M442.164,360.029h-82.246c-4.329,0-7.837-3.509-7.837-7.837c0-4.328,3.508-7.837,7.837-7.837h82.246
		c4.329,0,7.837,3.509,7.837,7.837C450.001,356.52,446.492,360.029,442.164,360.029z"/>
</g>
<g>
	<path style="fill:#F9D366;" d="M185.209,83.539l17.88-3.625c8.442-1.712,8.442-13.776,0-15.487l-17.88-3.625
		c-17.62-3.573-31.391-17.343-34.963-34.963l-3.625-17.88c-1.712-8.442-13.776-8.442-15.487,0l-3.625,17.88
		c-3.573,17.62-17.343,31.391-34.963,34.963l-17.88,3.625c-8.442,1.712-8.442,13.776,0,15.487l17.88,3.625
		c17.62,3.573,31.391,17.343,34.963,34.963l3.625,17.88c1.712,8.442,13.776,8.442,15.487,0l3.625-17.88
		C153.818,100.882,167.589,87.112,185.209,83.539z"/>
	<path style="fill:#F9D366;" d="M446.394,166.239l21.122-4.282c9.971-2.022,9.971-16.273,0-18.295l-21.122-4.282
		c-20.814-4.22-37.082-20.487-41.302-41.302l-4.282-21.122c-2.022-9.971-16.273-9.971-18.295,0l-4.282,21.122
		c-4.22,20.814-20.487,37.082-41.302,41.302l-21.122,4.282c-9.971,2.022-9.971,16.273,0,18.295l21.122,4.282
		c20.814,4.22,37.082,20.487,41.302,41.302l4.282,21.122c2.022,9.971,16.273,9.971,18.295,0l4.282-21.122
		C409.312,186.727,425.58,170.459,446.394,166.239z"/>
</g>
<g>
</g>
<g>
</g>
<g>
</g>
<g>
</g>
<g>
</g>
<g>
</g>
<g>
</g>
<g>
</g>
<g>
</g>
<g>
</g>
<g>
</g>
<g>
</g>
<g>
</g>
<g>
</g>
<g>
</g>
</svg>
